<?xml version="1.0" encoding="utf-8"?>
<!-- Generator: Adobe Illustrator 16.0.4, SVG Export Plug-In . SVG Version: 6.00 Build 0)  -->
<!DOCTYPE svg PUBLIC "-//W3C//DTD SVG 1.1//EN" "http://www.w3.org/Graphics/SVG/1.1/DTD/svg11.dtd">
<svg version="1.1" id="Layer_1" xmlns="http://www.w3.org/2000/svg" xmlns:xlink="http://www.w3.org/1999/xlink" x="0px" y="0px"
	 width="124px" height="487px" viewBox="0 0 124 487" enable-background="new 0 0 124 487" xml:space="preserve">
<g>
	<path fill="#FFFFFF" d="M114,433v-11h-12v-11H91v-11H80v11H68.525H57.145H46v-11H34v11H23v11H11v11H0v11.058v11.071V467h11v-11.871
		V445h12v10.129V477h11v-22h11.766h11.379h11.381h11.379H91v22h11v-21.871V445h12v10.129V467h10v-11.871v-11.071V433H114z M91,422
		v11H80v-11H91z M46,422v11H34v-11H46z"/>
	<rect x="34" y="477" fill="#FFFFFF" width="12" height="10"/>
	<rect x="80" y="477" fill="#FFFFFF" width="11" height="10"/>
</g>
<g>
	<rect x="23" y="100" fill="#FFFFFF" width="11" height="11"/>
	<rect x="91" y="100" fill="#FFFFFF" width="11" height="11"/>
	<path fill="#FFFFFF" d="M114,111v11.03V134h-12v-12H91v-11H80v11H68.125H56.744H46v-11H34v11H23v12H11v-11.97V111H0v11.03v11.072
		v11.072V156h11v10h12v12h11v-12h11.365h11.379h11.381h11.379H91v12h11v-12h12v-10h10v-11.825v-11.072V122.03V111H114z M91,134v10
		H80v-10H91z M46,134v10H34v-10H46z"/>
	<rect x="11" y="178" fill="#FFFFFF" width="12" height="11"/>
	<rect x="102" y="178" fill="#FFFFFF" width="12" height="11"/>
</g>
<g>
	<path fill="#FFFFFF" d="M102,322v-10H90.884H80v-12H68.125H56.744H46v12H33.985H23v10H11v11.727v11.072V356h11.605H34v11H23v11H11
		v11h11.605H34v-11h12v-11h11v-11h11v11h12v11h11v11h11.264H114v-11h-12v-11H91v-11h11.264H114v-11.201v-11.072V322H102z
		 M45.365,345H34v-11h11.365H57v11H45.365z M79.504,345H68v-11h11.504H91v11H79.504z"/>
	<rect x="57" y="367" fill="#FFFFFF" width="11" height="11"/>
</g>
<g>
	<rect x="34" y="200" fill="#FFFFFF" width="12" height="11"/>
	<rect x="80" y="200" fill="#FFFFFF" width="11" height="11"/>
	<polygon fill="#FFFFFF" points="102,223 102,233 91,233 91,245 80,245 80,233 91,233 91,223 80,223 80,211 68.125,211 56.744,211 
		46,211 46,223 34,223 34,233 46,233 46,245 34,245 34,233 23,233 23,223 11,223 11,233.225 11,244.297 11,255.369 11,266.441 
		11,277.514 11,289 22.605,289 34,289 34,277 23,277 23,266.441 23,255 34,255 34,267 46,267 46,277 56.744,277 68.125,277 80,277 
		80,267 91,267 91,255 102,255 102,266.441 102,277 91,277 91,289 102.264,289 114,289 114,277.514 114,266.441 114,255.369 
		114,244.297 114,233.225 114,223 	"/>
</g>
<g>
	<rect x="23" fill="#FFFFFF" width="11" height="12"/>
	<rect x="91" fill="#FFFFFF" width="11" height="12"/>
	<path fill="#FFFFFF" d="M114,45V34h-12V22H91V12H80v10H68.125H56.744H46V12H34v10H23v12H11v11H0v10.783v11.072V78h11V66.855V56h12
		v10.855V78h11V67h11.365h11.379h11.381h11.379H91v11h11V66.855V56h12v10.855V78h10V66.855V55.783V45H114z M34,56V44.711V34h12
		v10.711V56H34z M80,56V44.711V34h11v10.711V56H80z"/>
	<polygon fill="#FFFFFF" points="45.365,89 57,89 57,78 45.365,78 34,78 34,89 	"/>
	<polygon fill="#FFFFFF" points="68,78 68,89 79.504,89 91,89 91,78 79.504,78 	"/>
</g>
</svg>
