<?xml version="1.0" encoding="utf-8"?>
<!-- Generator: Adobe Illustrator 16.0.4, SVG Export Plug-In . SVG Version: 6.00 Build 0)  -->
<!DOCTYPE svg PUBLIC "-//W3C//DTD SVG 1.1//EN" "http://www.w3.org/Graphics/SVG/1.1/DTD/svg11.dtd">
<svg version="1.1" id="Layer_1" xmlns="http://www.w3.org/2000/svg" xmlns:xlink="http://www.w3.org/1999/xlink" x="0px" y="0px"
	 width="124px" height="210px" viewBox="0 0 124 210" enable-background="new 0 0 124 210" xml:space="preserve">
<rect y="0.128" width="124" height="210"/>
<g>
	<path fill="#FFFFFF" d="M27.817,22.434l3.054,6.113l3.105-6.13h1.041v12.537h-1.313v-9.455l-2.662,5.039h-0.529l-2.491-4.97v9.385
		h-1.297v-12.52H27.817z"/>
	<path fill="#FFFFFF" d="M43.654,22.434v1.178h-2.44v10.182h2.56v1.16h-6.364v-1.177h2.422V23.611h-2.286v-1.178H43.654z"/>
	<path fill="#FFFFFF" d="M54.952,24.806l-1.314,0.658c-0.091-0.064-0.09-0.173-0.09-0.197c0-0.05,0.008-0.1,0.008-0.15
		c0-0.093-0.029-0.145-0.068-0.214c-0.498-0.872-1.396-1.451-2.361-1.451c-1.742,0-3.291,1.86-3.291,5.181
		c0,3.379,1.594,5.298,3.407,5.298c0.967,0,1.946-0.569,2.514-1.524l1.024,0.675c-0.772,1.282-2.146,2.061-3.615,2.061
		c-2.029,0-4.677-1.556-4.677-6.387c0-5.005,2.77-6.428,4.686-6.428C52.812,22.33,54.29,23.299,54.952,24.806z"/>
	<path fill="#FFFFFF" d="M58.18,22.434c0.014,0.028,0.021,0.06,0.021,0.092c0,0.158-0.124,0.178-0.124,0.393v4.866h4.828v-5.351
		h1.502c0.014,0.025,0.022,0.054,0.022,0.084c0,0.152-0.142,0.158-0.142,0.366v12.069H62.89v-5.974h-4.812v5.957h-1.433V22.434
		H58.18z"/>
	<path fill="#FFFFFF" d="M70.093,22.208h0.153l4.761,12.728h-1.434l-1.364-3.654h-3.908l-1.193,3.671h-1.366L70.093,22.208z
		 M70.161,25.429l-1.587,4.762h3.327L70.161,25.429z"/>
	<path fill="#FFFFFF" d="M84.053,22.417v1.247h-6.245v4.104h5.152v1.281h-5.152v4.641h6.194v1.247h-7.508v-12.52H84.053z"/>
	<path fill="#FFFFFF" d="M88.134,22.434c0.021,0.143-0.04,0.259-0.068,0.315c-0.059,0.113-0.103,0.179-0.103,0.36v10.632h5.938
		v1.212H86.53v-12.52H88.134z"/>
</g>
<g>
	<path fill="#FFFFFF" d="M29.465,38.4l7.272,14.61l7.395-14.651h2.478v65.289h-3.128V45.726L37.144,57.77h-1.259l-5.932-11.878
		v57.756h-3.088V38.4H29.465z"/>
	<path fill="#FFFFFF" d="M68.938,62.958c-1.932,3.981-5.309,5.78-8.476,5.78c-4.489,0-10.583-3.701-10.583-15.443
		c0-11.745,6.179-15.226,10.554-15.226c3.194,0,6.528,1.793,8.452,5.633c1.6,3.193,1.798,6.906,1.798,9.701
		C70.683,56.027,70.495,59.745,68.938,62.958z M53.128,52.858c0,9.503,4.049,12.61,7.349,12.61c1.974,0,4.248-1.136,5.605-4.045
		c1.201-2.576,1.312-5.625,1.312-7.582c0-2.529-0.151-5.391-1.142-7.903c-1.368-3.464-3.876-4.725-5.958-4.725
		C57.212,41.214,53.128,43.95,53.128,52.858z"/>
	<path fill="#FFFFFF" d="M94.104,44.07l-3.129,1.573c-0.218-0.155-0.216-0.415-0.216-0.471c0-0.12,0.021-0.239,0.021-0.358
		c0-0.223-0.067-0.347-0.161-0.511c-1.184-2.083-3.325-3.468-5.621-3.468c-4.146,0-7.838,4.445-7.838,12.383
		c0,8.076,3.798,12.664,8.112,12.664c2.304,0,4.635-1.361,5.987-3.642l2.438,1.614c-1.841,3.064-5.111,4.925-8.609,4.925
		c-4.834,0-11.139-3.719-11.139-15.264c0-11.962,6.596-15.363,11.158-15.363C89.006,38.152,92.525,40.468,94.104,44.07z"/>
</g>
<g>
	<path fill="#FFFFFF" d="M46.393,148.609l-3.187,1.573c-0.22-0.155-0.218-0.415-0.218-0.471c0-0.12,0.02-0.239,0.02-0.358
		c0-0.223-0.07-0.346-0.165-0.511c-1.206-2.083-3.386-3.468-5.726-3.468c-4.224,0-7.983,4.444-7.983,12.383
		c0,8.076,3.867,12.664,8.264,12.664c2.345,0,4.72-1.361,6.098-3.643l2.483,1.613c-1.875,3.064-5.206,4.926-8.77,4.926
		c-4.922,0-11.346-3.719-11.346-15.264c0-11.963,6.72-15.363,11.367-15.363C41.2,142.691,44.786,145.008,46.393,148.609z"/>
	<path fill="#FFFFFF" d="M68.723,167.498c-1.968,3.98-5.408,5.779-8.634,5.779c-4.574,0-10.781-3.7-10.781-15.443
		c0-11.744,6.294-15.226,10.751-15.226c3.253,0,6.65,1.794,8.61,5.633c1.63,3.193,1.83,6.905,1.83,9.701
		C70.499,160.566,70.31,164.285,68.723,167.498z M52.618,157.398c0,9.502,4.125,12.609,7.486,12.609
		c2.011,0,4.326-1.137,5.709-4.045c1.225-2.576,1.338-5.625,1.338-7.582c0-2.529-0.154-5.391-1.164-7.902
		c-1.393-3.464-3.948-4.725-6.068-4.725C56.778,145.754,52.618,148.489,52.618,157.398z"/>
	<path fill="#FFFFFF" d="M76.478,107.637l7.408,14.609l7.532-14.65h2.525v65.268h-3.188v-57.9L84.3,127.006h-1.283l-6.042-11.879
		v57.736h-3.146v-65.227H76.478z"/>
</g>
<path fill="#FFFFFF" d="M26.915,176.921h1.368l5.247,9.265v-9.281h1.489c0.016,0.116-0.036,0.213-0.059,0.256
	c-0.048,0.091-0.08,0.141-0.08,0.28v12h-1.108l-5.507-9.853v9.836h-1.351V176.921z"/>
<path fill="#FFFFFF" d="M50.459,176.904v1.246h-6.338v4.104h5.229v1.281h-5.229v4.642h6.286v1.247h-7.619v-12.52H50.459z"/>
<path fill="#FFFFFF" d="M61.048,176.695h0.156l4.832,12.729H64.58l-1.385-3.654h-3.966l-1.212,3.671h-1.385L61.048,176.695z
	 M61.117,179.916l-1.61,4.763h3.376L61.117,179.916z"/>
<path fill="#FFFFFF" d="M78.937,179.605c-0.044-0.014-0.102-0.054-0.105-0.164c-0.003-0.074,0.007-0.116-0.046-0.193
	c-0.484-0.707-1.379-1.238-2.545-1.238c-1.431,0-2.258,0.874-2.258,1.832c0,0.512,0.231,1.253,1.277,1.865
	c1.145,0.669,2.906,1.023,3.994,2.048c0.782,0.737,0.971,1.61,0.971,2.265c0,1.574-1.124,3.613-4.167,3.613
	c-1.543,0-2.943-0.541-3.927-1.612l0.832-1.437c0.096,0.049,0.092,0.158,0.091,0.191c-0.001,0.083-0.007,0.134,0.056,0.213
	c0.56,0.709,1.617,1.379,2.989,1.379c1.815,0,2.729-1.18,2.729-2.268c0-0.559-0.229-1.212-1.049-1.727
	c-0.945-0.592-2.749-1.024-3.907-1.879c-1.042-0.77-1.329-1.71-1.329-2.439c0-1.709,1.551-3.203,3.81-3.203
	c1.362,0,2.62,0.553,3.468,1.559L78.937,179.605z"/>
<path fill="#FFFFFF" d="M93.967,176.982v1.246h-6.621v4.104h5.464v1.281h-5.464v4.642h6.566v1.247h-7.958v-12.52H93.967z"/>
<g>
	<path fill="#FFFFFF" d="M27.319,108.109h3.27l12.541,22.143v-22.185h3.559c0.039,0.279-0.086,0.511-0.14,0.612
		c-0.115,0.219-0.191,0.338-0.191,0.671v28.683h-2.649l-13.161-23.551v23.509h-3.229V108.109z"/>
</g>
<g>
	<path fill="#FFFFFF" d="M74.531,73.765h3.327l12.756,22.143V73.723h3.621c0.038,0.279-0.088,0.51-0.143,0.612
		c-0.117,0.219-0.194,0.338-0.194,0.671v28.682h-2.694l-13.389-23.55v23.508h-3.284V73.765z"/>
</g>
<g>
	<path fill="#FFFFFF" d="M69.773,73.865v2.979H54.625v26.751h12.5v3.063h-12.5v28.353h15.024v2.979H51.438V73.865H69.773z"/>
</g>
</svg>
