<?xml version="1.0" encoding="utf-8"?>
<!-- Generator: Adobe Illustrator 16.0.4, SVG Export Plug-In . SVG Version: 6.00 Build 0)  -->
<!DOCTYPE svg PUBLIC "-//W3C//DTD SVG 1.1//EN" "http://www.w3.org/Graphics/SVG/1.1/DTD/svg11.dtd">
<svg version="1.1" id="Layer_1" xmlns="http://www.w3.org/2000/svg" xmlns:xlink="http://www.w3.org/1999/xlink" x="0px" y="0px"
	 width="58px" height="131px" viewBox="31.5 38.5 58 131" enable-background="new 31.5 38.5 58 131" xml:space="preserve">
<g>
	<path fill="#D3D3D3" d="M37.221,45.177l2.188,4.38l2.225-4.392h0.746v8.983h-0.941v-6.775l-1.907,3.611h-0.379l-1.785-3.562v6.725
		h-0.93v-8.972L37.221,45.177L37.221,45.177z"/>
	<path fill="#D3D3D3" d="M48.569,45.177v0.844h-1.749v7.296h1.834v0.831h-4.56v-0.843h1.735v-7.285h-1.638v-0.844L48.569,45.177
		L48.569,45.177z"/>
	<path fill="#D3D3D3" d="M56.665,46.877l-0.941,0.471c-0.065-0.046-0.064-0.124-0.064-0.141c0-0.036,0.006-0.072,0.006-0.107
		c0-0.067-0.021-0.104-0.049-0.153c-0.356-0.625-1-1.04-1.691-1.04c-1.249,0-2.358,1.333-2.358,3.712
		c0,2.421,1.143,3.796,2.441,3.796c0.693,0,1.395-0.408,1.801-1.092l0.734,0.483c-0.554,0.919-1.538,1.477-2.591,1.477
		c-1.454,0-3.351-1.115-3.351-4.577c0-3.586,1.984-4.606,3.357-4.606C55.132,45.103,56.191,45.797,56.665,46.877z"/>
	<path fill="#D3D3D3" d="M58.979,45.177c0.01,0.02,0.015,0.043,0.015,0.065c0,0.114-0.089,0.128-0.089,0.282v3.487h3.459v-3.834
		h1.077c0.01,0.018,0.017,0.039,0.017,0.06c0,0.109-0.103,0.113-0.103,0.262v8.648h-1.001v-4.281h-3.448v4.269h-1.027v-8.958H58.979
		z"/>
	<path fill="#D3D3D3" d="M67.515,45.015h0.11l3.41,9.121h-1.027l-0.977-2.618H66.23l-0.855,2.63h-0.979L67.515,45.015z
		 M67.563,47.323l-1.138,3.412h2.384L67.563,47.323z"/>
	<path fill="#D3D3D3" d="M77.518,45.165v0.894h-4.475V49h3.691v0.917h-3.691v3.326h4.438v0.894h-5.38v-8.971H77.518z"/>
	<path fill="#D3D3D3" d="M80.442,45.177c0.015,0.103-0.029,0.186-0.049,0.226c-0.042,0.081-0.074,0.128-0.074,0.258v7.619h4.255
		v0.869h-5.282v-8.972L80.442,45.177L80.442,45.177z"/>
</g>
<g>
	<path fill="#D3D3D3" d="M38.402,56.618l5.211,10.469l5.299-10.498h1.776v46.784h-2.241V61.867l-4.542,8.63h-0.902l-4.25-8.511
		v41.386h-2.213V56.618H38.402z"/>
	<path fill="#D3D3D3" d="M66.687,74.215c-1.384,2.853-3.804,4.142-6.073,4.142c-3.216,0-7.583-2.652-7.583-11.066
		c0-8.416,4.428-10.911,7.563-10.911c2.288,0,4.678,1.285,6.056,4.037c1.146,2.288,1.289,4.949,1.289,6.951
		C67.938,69.249,67.803,71.913,66.687,74.215z M55.358,66.978c0,6.809,2.901,9.036,5.266,9.036c1.415,0,3.044-0.814,4.017-2.898
		c0.861-1.846,0.94-4.031,0.94-5.433c0-1.812-0.108-3.863-0.819-5.663c-0.98-2.482-2.777-3.386-4.269-3.386
		C58.285,58.634,55.358,60.595,55.358,66.978z"/>
	<path fill="#D3D3D3" d="M84.72,60.681l-2.242,1.127c-0.156-0.111-0.154-0.297-0.154-0.338c0-0.086,0.015-0.171,0.015-0.256
		c0-0.16-0.048-0.249-0.115-0.366c-0.848-1.493-2.383-2.485-4.027-2.485c-2.972,0-5.616,3.185-5.616,8.873
		c0,5.787,2.721,9.075,5.812,9.075c1.652,0,3.322-0.975,4.291-2.61l1.747,1.157c-1.319,2.195-3.662,3.529-6.169,3.529
		c-3.464,0-7.982-2.665-7.982-10.938c0-8.571,4.727-11.009,7.996-11.009C81.067,56.44,83.589,58.1,84.72,60.681z"/>
</g>
<g>
	<path fill="#D3D3D3" d="M50.532,135.59l-2.284,1.127c-0.158-0.111-0.157-0.297-0.157-0.338c0-0.086,0.015-0.17,0.015-0.256
		c0-0.16-0.05-0.248-0.118-0.367c-0.864-1.492-2.426-2.484-4.103-2.484c-3.027,0-5.721,3.186-5.721,8.873
		c0,5.787,2.771,9.074,5.922,9.074c1.681,0,3.382-0.975,4.37-2.609l1.779,1.156c-1.344,2.195-3.73,3.529-6.284,3.529
		c-3.527,0-8.13-2.666-8.13-10.938c0-8.572,4.815-11.01,8.146-11.01C46.811,131.35,49.381,133.01,50.532,135.59z"/>
	<path fill="#D3D3D3" d="M66.533,149.125c-1.41,2.852-3.876,4.141-6.187,4.141c-3.277,0-7.725-2.65-7.725-11.064
		c0-8.416,4.51-10.912,7.704-10.912c2.332,0,4.765,1.287,6.169,4.037c1.168,2.287,1.312,4.949,1.312,6.951
		C67.806,144.158,67.67,146.822,66.533,149.125z M54.993,141.889c0,6.809,2.956,9.035,5.364,9.035c1.441,0,3.1-0.816,4.09-2.9
		c0.879-1.846,0.959-4.029,0.959-5.432c0-1.812-0.109-3.863-0.834-5.662c-0.998-2.482-2.829-3.387-4.348-3.387
		C57.974,133.545,54.993,135.504,54.993,141.889z"/>
	<path fill="#D3D3D3" d="M72.09,106.23l5.309,10.469l5.397-10.498h1.81v46.768H82.32V111.48l-4.626,8.629h-0.918l-4.331-8.512
		v41.371h-2.254V106.23H72.09L72.09,106.23z"/>
</g>
<path fill="#D3D3D3" d="M36.575,155.877h0.98l3.76,6.639v-6.65h1.067c0.012,0.084-0.026,0.154-0.042,0.184
	c-0.034,0.066-0.057,0.102-0.057,0.201v8.6h-0.794l-3.946-7.061v7.047h-0.968L36.575,155.877L36.575,155.877z"/>
<path fill="#D3D3D3" d="M53.446,155.865v0.893h-4.542v2.941h3.747v0.918h-3.747v3.326h4.504v0.893h-5.46v-8.971H53.446z"/>
<path fill="#D3D3D3" d="M61.033,155.715h0.112l3.462,9.121h-1.043l-0.992-2.617H59.73l-0.869,2.631h-0.993L61.033,155.715z
	 M61.083,158.023l-1.154,3.414h2.419L61.083,158.023z"/>
<path fill="#D3D3D3" d="M73.853,157.801c-0.032-0.01-0.073-0.039-0.076-0.117c-0.002-0.053,0.005-0.084-0.032-0.139
	c-0.348-0.506-0.988-0.887-1.824-0.887c-1.025,0-1.618,0.625-1.618,1.312c0,0.367,0.166,0.898,0.915,1.336
	c0.82,0.48,2.083,0.734,2.862,1.467c0.561,0.529,0.695,1.154,0.695,1.623c0,1.129-0.805,2.59-2.985,2.59
	c-1.105,0-2.109-0.389-2.814-1.154l0.597-1.031c0.068,0.035,0.065,0.113,0.065,0.139c-0.001,0.059-0.006,0.096,0.039,0.152
	c0.402,0.508,1.159,0.988,2.143,0.988c1.301,0,1.956-0.846,1.956-1.625c0-0.402-0.164-0.869-0.752-1.238
	c-0.677-0.426-1.971-0.734-2.8-1.346c-0.746-0.553-0.952-1.227-0.952-1.748c0-1.225,1.11-2.295,2.73-2.295
	c0.976,0,1.877,0.396,2.484,1.117L73.853,157.801z"/>
<path fill="#D3D3D3" d="M84.622,155.922v0.893h-4.745v2.939h3.916v0.918h-3.916v3.326h4.706v0.895H78.88v-8.971H84.622z"/>
<g>
	<path fill="#D3D3D3" d="M36.864,106.569h2.343l8.986,15.866v-15.896h2.55c0.028,0.199-0.062,0.366-0.101,0.439
		c-0.082,0.156-0.137,0.242-0.137,0.479v20.554h-1.898l-9.431-16.876v16.846h-2.313V106.569z"/>
</g>
<g>
	<path fill="#D3D3D3" d="M70.695,81.959h2.383l9.141,15.867V81.929h2.595c0.028,0.2-0.062,0.365-0.102,0.438
		c-0.084,0.157-0.139,0.242-0.139,0.48v20.553h-1.931l-9.595-16.875v16.845h-2.353V81.959z"/>
</g>
<g>
	<path fill="#D3D3D3" d="M67.285,82.031v2.135H56.431v19.169h8.957v2.195h-8.957v20.317h10.766v2.134H54.147v-45.95H67.285z"/>
</g>
</svg>
