<?xml version="1.0" encoding="utf-8"?>
<!-- Generator: Adobe Illustrator 22.1.0, SVG Export Plug-In . SVG Version: 6.00 Build 0)  -->
<svg version="1.1" id="Layer_1" xmlns="http://www.w3.org/2000/svg" xmlns:xlink="http://www.w3.org/1999/xlink" x="0px" y="0px"
	 viewBox="0 0 124 210" style="enable-background:new 0 0 124 210;" xml:space="preserve">
<style type="text/css">
	.st0{fill:#151515;}
	.st1{fill:#FFFFFF;}
</style>
<rect y="0.1" class="st0" width="124" height="210"/>
<g>
	<path class="st1" d="M27.8,22.4l3.1,6.1l3.1-6.1h1V35h-1.3v-9.5l-2.7,5h-0.5l-2.5-5V35h-1.3V22.4L27.8,22.4L27.8,22.4z"/>
	<path class="st1" d="M43.7,22.4v1.2h-2.4v10.2h2.6V35h-6.4v-1.2h2.4V23.6h-2.3v-1.2L43.7,22.4L43.7,22.4z"/>
	<path class="st1" d="M55,24.8l-1.3,0.7c-0.1-0.1-0.1-0.2-0.1-0.2c0,0,0-0.1,0-0.1c0-0.1,0-0.1-0.1-0.2c-0.5-0.9-1.4-1.5-2.4-1.5
		c-1.7,0-3.3,1.9-3.3,5.2c0,3.4,1.6,5.3,3.4,5.3c1,0,1.9-0.6,2.5-1.5l1,0.7c-0.8,1.3-2.1,2.1-3.6,2.1c-2,0-4.7-1.6-4.7-6.4
		c0-5,2.8-6.4,4.7-6.4C52.8,22.3,54.3,23.3,55,24.8z"/>
	<path class="st1" d="M58.2,22.4C58.2,22.5,58.2,22.5,58.2,22.4c0,0.2-0.1,0.3-0.1,0.5v4.9h4.8v-5.4h1.5c0,0,0,0.1,0,0.1
		c0,0.2-0.1,0.2-0.1,0.4V35h-1.4v-6h-4.8v6h-1.4V22.4H58.2z"/>
	<path class="st1" d="M70.1,22.2h0.2L75,34.9h-1.4l-1.4-3.7h-3.9L67.1,35h-1.4L70.1,22.2z M70.2,25.4l-1.6,4.8h3.3L70.2,25.4z"/>
	<path class="st1" d="M84.1,22.4v1.2h-6.2v4.1H83V29h-5.2v4.6H84v1.2h-7.5V22.4H84.1z"/>
	<path class="st1" d="M88.1,22.4c0,0.1,0,0.3-0.1,0.3C88,22.9,88,22.9,88,23.1v10.6h5.9V35h-7.4V22.4L88.1,22.4L88.1,22.4z"/>
</g>
<g>
	<path class="st1" d="M29.5,38.4L36.7,53l7.4-14.7h2.5v65.3h-3.1V45.7l-6.3,12h-1.3L30,45.9v57.8h-3.1V38.4H29.5z"/>
	<path class="st1" d="M68.9,63c-1.9,4-5.3,5.8-8.5,5.8c-4.5,0-10.6-3.7-10.6-15.4c0-11.7,6.2-15.2,10.6-15.2c3.2,0,6.5,1.8,8.5,5.6
		c1.6,3.2,1.8,6.9,1.8,9.7C70.7,56,70.5,59.7,68.9,63z M53.1,52.9c0,9.5,4,12.6,7.3,12.6c2,0,4.2-1.1,5.6-4c1.2-2.6,1.3-5.6,1.3-7.6
		c0-2.5-0.2-5.4-1.1-7.9c-1.4-3.5-3.9-4.7-6-4.7C57.2,41.2,53.1,44,53.1,52.9z"/>
	<path class="st1" d="M94.1,44.1L91,45.6c-0.2-0.2-0.2-0.4-0.2-0.5c0-0.1,0-0.2,0-0.4c0-0.2-0.1-0.3-0.2-0.5
		c-1.2-2.1-3.3-3.5-5.6-3.5c-4.1,0-7.8,4.4-7.8,12.4c0,8.1,3.8,12.7,8.1,12.7c2.3,0,4.6-1.4,6-3.6l2.4,1.6c-1.8,3.1-5.1,4.9-8.6,4.9
		c-4.8,0-11.1-3.7-11.1-15.3c0-12,6.6-15.4,11.2-15.4C89,38.2,92.5,40.5,94.1,44.1z"/>
</g>
<g>
	<path class="st1" d="M46.4,148.6l-3.2,1.6c-0.2-0.2-0.2-0.4-0.2-0.5c0-0.1,0-0.2,0-0.4c0-0.2-0.1-0.3-0.2-0.5
		c-1.2-2.1-3.4-3.5-5.7-3.5c-4.2,0-8,4.4-8,12.4c0,8.1,3.9,12.7,8.3,12.7c2.3,0,4.7-1.4,6.1-3.6l2.5,1.6c-1.9,3.1-5.2,4.9-8.8,4.9
		c-4.9,0-11.3-3.7-11.3-15.3c0-12,6.7-15.4,11.4-15.4C41.2,142.7,44.8,145,46.4,148.6z"/>
	<path class="st1" d="M68.7,167.5c-2,4-5.4,5.8-8.6,5.8c-4.6,0-10.8-3.7-10.8-15.4c0-11.7,6.3-15.2,10.8-15.2c3.3,0,6.7,1.8,8.6,5.6
		c1.6,3.2,1.8,6.9,1.8,9.7C70.5,160.6,70.3,164.3,68.7,167.5z M52.6,157.4c0,9.5,4.1,12.6,7.5,12.6c2,0,4.3-1.1,5.7-4
		c1.2-2.6,1.3-5.6,1.3-7.6c0-2.5-0.2-5.4-1.2-7.9c-1.4-3.5-3.9-4.7-6.1-4.7C56.8,145.8,52.6,148.5,52.6,157.4z"/>
	<path class="st1" d="M76.5,107.6l7.4,14.6l7.5-14.7h2.5v65.3h-3.2V115l-6.5,12H83l-6-11.9v57.7h-3.1v-65.2L76.5,107.6L76.5,107.6z"
		/>
</g>
<path class="st1" d="M26.9,176.9h1.4l5.2,9.3v-9.3H35c0,0.1,0,0.2-0.1,0.3c0,0.1-0.1,0.1-0.1,0.3v12h-1.1l-5.5-9.9v9.8h-1.4
	L26.9,176.9L26.9,176.9z"/>
<path class="st1" d="M50.5,176.9v1.2h-6.3v4.1h5.2v1.3h-5.2v4.6h6.3v1.2h-7.6v-12.5H50.5z"/>
<path class="st1" d="M61,176.7h0.2l4.8,12.7h-1.5l-1.4-3.7h-4l-1.2,3.7h-1.4L61,176.7z M61.1,179.9l-1.6,4.8h3.4L61.1,179.9z"/>
<path class="st1" d="M78.9,179.6c0,0-0.1-0.1-0.1-0.2c0-0.1,0-0.1,0-0.2c-0.5-0.7-1.4-1.2-2.5-1.2c-1.4,0-2.3,0.9-2.3,1.8
	c0,0.5,0.2,1.3,1.3,1.9c1.1,0.7,2.9,1,4,2c0.8,0.7,1,1.6,1,2.3c0,1.6-1.1,3.6-4.2,3.6c-1.5,0-2.9-0.5-3.9-1.6l0.8-1.4
	c0.1,0,0.1,0.2,0.1,0.2c0,0.1,0,0.1,0.1,0.2c0.6,0.7,1.6,1.4,3,1.4c1.8,0,2.7-1.2,2.7-2.3c0-0.6-0.2-1.2-1-1.7
	c-0.9-0.6-2.7-1-3.9-1.9c-1-0.8-1.3-1.7-1.3-2.4c0-1.7,1.6-3.2,3.8-3.2c1.4,0,2.6,0.6,3.5,1.6L78.9,179.6z"/>
<path class="st1" d="M94,177v1.2h-6.6v4.1h5.5v1.3h-5.5v4.6h6.6v1.2h-8V177H94z"/>
<g>
	<path class="st1" d="M27.3,108.1h3.3l12.5,22.1v-22.2h3.6c0,0.3-0.1,0.5-0.1,0.6c-0.1,0.2-0.2,0.3-0.2,0.7V138h-2.6l-13.2-23.6V138
		h-3.2C27.3,138,27.3,108.1,27.3,108.1z"/>
</g>
<g>
	<path class="st1" d="M74.5,73.8h3.3l12.8,22.1V73.7h3.6c0,0.3-0.1,0.5-0.1,0.6c-0.1,0.2-0.2,0.3-0.2,0.7v28.7h-2.7L77.8,80.1v23.5
		h-3.3C74.5,103.6,74.5,73.8,74.5,73.8z"/>
</g>
<g>
	<path class="st1" d="M69.8,73.9v3H54.6v26.8h12.5v3.1H54.6V135h15v3H51.4V73.9H69.8z"/>
</g>
</svg>
