<?xml version="1.0" encoding="utf-8"?>
<!-- Generator: Adobe Illustrator 16.0.4, SVG Export Plug-In . SVG Version: 6.00 Build 0)  -->
<!DOCTYPE svg PUBLIC "-//W3C//DTD SVG 1.1//EN" "http://www.w3.org/Graphics/SVG/1.1/DTD/svg11.dtd">
<svg version="1.1" id="Layer_1" xmlns="http://www.w3.org/2000/svg" xmlns:xlink="http://www.w3.org/1999/xlink" x="0px" y="0px"
	 width="51.179px" height="201px" viewBox="0 0 51.179 201" enable-background="new 0 0 51.179 201" xml:space="preserve">
<g>
	<path fill="#FFFFFF" d="M47.427,176.343v-4.48h-4.887v-4.48h-4.48v-4.479h-4.48v4.479h-4.673h-4.635h-4.539v-4.479h-4.887v4.479
		h-4.48v4.48H5.48v4.48H1v4.503v4.509v4.834h4.48v-4.834v-4.125h4.887v4.125v8.907h4.48v-8.96h4.792h4.634h4.635h4.634h4.519v8.96
		h4.48v-8.907v-4.125h4.887v4.125v4.834H51.5v-4.834v-4.509v-4.503H47.427z M38.061,171.863v4.48h-4.48v-4.48H38.061z
		 M19.734,171.863v4.48h-4.887v-4.48H19.734z"/>
	<rect x="14.847" y="194.262" fill="#FFFFFF" width="4.887" height="4.072"/>
	<rect x="33.581" y="194.262" fill="#FFFFFF" width="4.48" height="4.072"/>
</g>
<g>
	<rect x="10.367" y="40.726" fill="#FFFFFF" width="4.48" height="4.48"/>
	<rect x="38.061" y="40.726" fill="#FFFFFF" width="4.48" height="4.48"/>
	<path fill="#FFFFFF" d="M47.427,45.206v4.492v4.875h-4.887v-4.887h-4.48v-4.48h-4.48v4.48h-4.836h-4.635h-4.375v-4.48h-4.887v4.48
		h-4.48v4.887H5.48v-4.875v-4.492H1v4.492v4.509v4.509v4.816h4.48v4.073h4.887v4.887h4.48v-4.887h4.629h4.634h4.635h4.634h4.682
		v4.887h4.48v-4.887h4.887v-4.073H51.5v-4.816v-4.509v-4.509v-4.492H47.427z M38.061,54.573v4.072h-4.48v-4.072H38.061z
		 M19.734,54.573v4.072h-4.887v-4.072H19.734z"/>
	<rect x="5.48" y="72.492" fill="#FFFFFF" width="4.887" height="4.48"/>
	<rect x="42.541" y="72.492" fill="#FFFFFF" width="4.887" height="4.48"/>
</g>
<g>
	<path fill="#FFFFFF" d="M42.541,131.137v-4.073h-4.527h-4.433v-4.887h-4.836h-4.635h-4.375v4.887h-4.893h-4.474v4.073H5.48v4.775
		v4.509v4.562h4.726h4.641v4.48h-4.48v4.479H5.48v4.48h4.726h4.641v-4.48h4.887v-4.479h4.48v-4.48h4.479v4.48h4.887v4.479h4.48v4.48
		h4.587h4.78v-4.48h-4.887v-4.479h-4.48v-4.48h4.587h4.78v-4.562v-4.509v-4.775H42.541z M19.476,140.504h-4.629v-4.479h4.629h4.738
		v4.479H19.476z M33.378,140.504h-4.685v-4.479h4.685h4.682v4.479H33.378z"/>
	<rect x="24.214" y="149.464" fill="#FFFFFF" width="4.479" height="4.479"/>
</g>
<g>
	<rect x="14.847" y="81.452" fill="#FFFFFF" width="4.887" height="4.48"/>
	<rect x="33.581" y="81.452" fill="#FFFFFF" width="4.48" height="4.48"/>
	<polygon fill="#FFFFFF" points="42.541,90.818 42.541,94.891 38.061,94.891 38.061,99.778 33.581,99.778 33.581,94.891 
		38.061,94.891 38.061,90.818 33.581,90.818 33.581,85.932 28.745,85.932 24.109,85.932 19.734,85.932 19.734,90.818 14.847,90.818 
		14.847,94.891 19.734,94.891 19.734,99.778 14.847,99.778 14.847,94.891 10.367,94.891 10.367,90.818 5.48,90.818 5.48,94.983 
		5.48,99.492 5.48,104.001 5.48,108.51 5.48,113.02 5.48,117.698 10.206,117.698 14.847,117.698 14.847,112.811 10.367,112.811 
		10.367,108.51 10.367,103.851 14.847,103.851 14.847,108.738 19.734,108.738 19.734,112.811 24.109,112.811 28.745,112.811 
		33.581,112.811 33.581,108.738 38.061,108.738 38.061,103.851 42.541,103.851 42.541,108.51 42.541,112.811 38.061,112.811 
		38.061,117.698 42.647,117.698 47.427,117.698 47.427,113.02 47.427,108.51 47.427,104.001 47.427,99.492 47.427,94.983 
		47.427,90.818 	"/>
</g>
<g>
	<rect x="10.367" fill="#FFFFFF" width="4.48" height="4.887"/>
	<rect x="38.061" fill="#FFFFFF" width="4.48" height="4.887"/>
	<path fill="#FFFFFF" d="M47.427,18.327v-4.48h-4.887V8.959h-4.48V4.887h-4.48v4.072h-4.836h-4.635h-4.375V4.887h-4.887v4.072h-4.48
		v4.887H5.48v4.48H1v4.392v4.509v4.539h4.48v-4.539v-4.42h4.887v4.42v4.539h4.48v-4.48h4.629h4.634h4.635h4.634h4.682v4.48h4.48
		v-4.539v-4.42h4.887v4.42v4.539H51.5v-4.539v-4.509v-4.392H47.427z M14.847,22.807v-4.598v-4.362h4.887v4.362v4.598H14.847z
		 M33.581,22.807v-4.598v-4.362h4.48v4.362v4.598H33.581z"/>
	<polygon fill="#FFFFFF" points="19.476,36.246 24.214,36.246 24.214,31.766 19.476,31.766 14.847,31.766 14.847,36.246 	"/>
	<polygon fill="#FFFFFF" points="28.693,31.766 28.693,36.246 33.378,36.246 38.061,36.246 38.061,31.766 33.378,31.766 	"/>
</g>
</svg>
